<svg width="66" height="66" viewBox="0 0 66 66" fill="none" xmlns="http://www.w3.org/2000/svg">
<path d="M65.5 0.5L60.0725 6.53056L54.6775 0.5L49.25 6.53056L43.8225 0.5L38.4275 6.53056L33 0.5L27.5725 6.53056L22.1775 0.5L16.75 6.53056L11.3225 0.5L5.9275 6.53056L0.5 0.5V58.2778C0.5 62.25 3.425 65.5 7 65.5H59C62.575 65.5 65.5 62.25 65.5 58.2778V0.5ZM29.75 58.2778H7V36.6111H29.75V58.2778ZM59 58.2778H36.25V51.0556H59V58.2778ZM59 43.8333H36.25V36.6111H59V43.8333ZM59 29.3889H7V18.5556H59V29.3889Z" fill="black"/>
</svg>
