<svg width="66" height="66" viewBox="0 0 66 66" fill="none" xmlns="http://www.w3.org/2000/svg">
<path d="M0.5 0.5V54.6667C0.5 60.6068 4.90385 65.5 10.25 65.5H55.75C61.0962 65.5 65.5 60.6068 65.5 54.6667V14.9444H59V54.6667C59 56.7071 57.5863 58.2778 55.75 58.2778C53.9137 58.2778 52.5 56.7071 52.5 54.6667V0.5H0.5ZM7 7.72222H46V54.6667C46 56.069 46.9067 57.0427 47.3521 58.2778H10.25C8.41365 58.2778 7 56.7071 7 54.6667V7.72222ZM13.5 14.9444V25.7778H39.5V14.9444H13.5ZM13.5 33V40.2222H39.5V33H13.5ZM13.5 47.4444V54.6667H39.5V47.4444H13.5Z" fill="white"/>
</svg>
