<svg width="66" height="40" viewBox="0 0 66 40" fill="none" xmlns="http://www.w3.org/2000/svg">
<path d="M33 36.4C37.8952 36.4 41.8636 29.0574 41.8636 20C41.8636 10.9425 37.8952 3.59998 33 3.59998C28.1047 3.59998 24.1364 10.9425 24.1364 20C24.1364 29.0574 28.1047 36.4 33 36.4Z" fill="white"/>
<path d="M19.7045 20C19.7045 17.2286 20.3841 8.11429 28.6568 1.42857C26.3523 0.542857 23.8409 0 21.1818 0C9.77727 0 0.5 8.97143 0.5 20C0.5 31.0286 9.77727 40 21.1818 40C23.8409 40 26.3523 39.4571 28.6568 38.5714C20.3841 31.8857 19.7045 22.7714 19.7045 20Z" fill="white"/>
<path d="M44.8182 0C42.1591 0 39.6477 0.542857 37.3432 1.42857C45.6159 8.11429 46.2955 17.2286 46.2955 20C46.2955 22.7714 45.6159 31.8857 37.3432 38.5714C39.6477 39.4571 42.1591 40 44.8182 40C56.2227 40 65.5 31.0286 65.5 20C65.5 8.97143 56.2227 0 44.8182 0Z" fill="white"/>
</svg>
