<svg width="66" height="66" viewBox="0 0 66 66" fill="none" xmlns="http://www.w3.org/2000/svg">
<path d="M13.5005 42.7491C10.8029 42.7491 8.36531 43.8541 6.61024 45.6092C2.77509 49.4444 0.5 65.5 0.5 65.5C0.5 65.5 16.5556 63.2249 20.3908 59.3898C22.1459 57.6347 23.2509 55.1971 23.2509 52.4995C23.2509 47.1043 18.8957 42.7491 13.5005 42.7491ZM15.8081 54.8071C14.8981 55.7171 8.75533 57.2772 8.75533 57.2772C8.75533 57.2772 10.2829 51.1669 11.2254 50.2244C11.778 49.6069 12.5905 49.2493 13.5005 49.2493C15.2881 49.2493 16.7507 50.7119 16.7507 52.4995C16.7507 53.4095 16.3931 54.222 15.8081 54.8071ZM50.617 38.3614C71.2878 17.6906 64.3976 1.60244 64.3976 1.60244C64.3976 1.60244 48.3094 -5.28783 27.6386 15.383L19.5458 13.7579C17.4332 13.3354 15.2231 14.0179 13.663 15.5455L0.5 28.741L16.7507 35.6963L30.3037 49.2493L37.259 65.5L50.422 52.337C51.9496 50.8094 52.6321 48.5993 52.2096 46.4542L50.617 38.3614ZM18.0832 29.196L11.8755 26.5309L18.2782 20.1282L22.9584 21.0707C21.1058 23.7683 19.4483 26.5959 18.0832 29.196ZM39.4691 54.1245L36.804 47.9168C39.4041 46.5517 42.2317 44.8942 44.8968 43.0416L45.8393 47.7218L39.4691 54.1245ZM46.0018 33.7787C41.7116 38.0689 35.0164 41.579 32.8713 42.6516L23.3484 33.1287C24.3885 31.0161 27.8986 24.3209 32.2213 19.9982C47.4319 4.78757 58.9698 7.03016 58.9698 7.03016C58.9698 7.03016 61.2124 18.5681 46.0018 33.7787ZM42.7517 29.7486C46.3268 29.7486 49.2519 26.8235 49.2519 23.2483C49.2519 19.6732 46.3268 16.7481 42.7517 16.7481C39.1765 16.7481 36.2514 19.6732 36.2514 23.2483C36.2514 26.8235 39.1765 29.7486 42.7517 29.7486Z" fill="black"/>
</svg>
