<svg width="66" height="66" viewBox="0 0 66 66" fill="none" xmlns="http://www.w3.org/2000/svg">
<path d="M65.5 32.969L58.2909 24.3333L59.2955 12.9119L48.6295 10.3738L43.0455 0.5L33 5.01905L22.9545 0.5L17.3705 10.3738L6.70455 12.881L7.70909 24.3333L0.5 32.969L7.70909 41.6048L6.70455 53.0571L17.3705 55.5952L22.9545 65.5L33 60.95L43.0455 65.469L48.6295 55.5952L59.2955 53.0571L58.2909 41.6357L65.5 32.969ZM53.8295 37.55L52.175 39.5619L52.4114 42.1929L52.9432 48.2286L47.3295 49.5595L44.8477 50.1476L43.5477 52.4381L40.6227 57.6381L35.3636 55.2548L33 54.2024L30.6659 55.2548L25.4068 57.6381L22.4818 52.4691L21.1818 50.1786L18.7 49.5905L13.0864 48.2595L13.6182 42.1929L13.8545 39.5619L12.2 37.55L8.38864 33L12.2 28.4191L13.8545 26.4071L13.5886 23.7452L13.0568 17.7405L18.6705 16.4095L21.1523 15.8214L22.4523 13.531L25.3773 8.33095L30.6364 10.7143L33 11.7667L35.3341 10.7143L40.5932 8.33095L43.5182 13.531L44.8182 15.8214L47.3 16.4095L52.9136 17.7405L52.3818 23.7762L52.1455 26.4071L53.8 28.4191L57.6114 32.969L53.8295 37.55Z" fill="black"/>
<path d="M27.3568 38.4167L20.5023 31.2048L16.1295 35.8167L27.3568 47.6095L49.0432 24.8286L44.6705 20.2167L27.3568 38.4167Z" fill="black"/>
</svg>
