<svg width="56" height="66" viewBox="0 0 56 66" fill="none" xmlns="http://www.w3.org/2000/svg">
<path d="M9.95312 65.5C7.375 65.5 5.15495 64.7207 3.29297 63.1621C1.43099 61.6036 0.5 59.6745 0.5 57.375V14.6038C0.5 12.6619 1.17318 10.9245 2.51953 9.39151C3.86589 7.85849 5.6276 6.88758 7.80469 6.47877L41.75 0.5V49.5566L9.17969 55.3821C8.66406 55.4843 8.23438 55.727 7.89062 56.1103C7.54688 56.4935 7.375 56.9151 7.375 57.375C7.375 57.9371 7.63281 58.4098 8.14844 58.793C8.66406 59.1763 9.26562 59.3679 9.95312 59.3679H48.625V10.3113H55.5V65.5H9.95312ZM17.6875 47.6403L34.875 44.6509V8.01179L17.6875 11.0012V47.6403ZM10.8125 48.8667V12.2276L9.52344 12.4575C8.89323 12.5597 8.3776 12.8025 7.97656 13.1857C7.57552 13.569 7.375 14.0417 7.375 14.6038V49.6333C7.66146 49.5311 7.96224 49.4416 8.27734 49.365C8.59245 49.2883 8.89323 49.2244 9.17969 49.1733L10.8125 48.8667Z" fill="black"/>
</svg>
