<svg width="72" height="76" viewBox="0 0 72 76" fill="none" xmlns="http://www.w3.org/2000/svg">
<path d="M24 76V56C19.8667 55.6667 15.8167 55.2 11.85 54.6C7.88333 54 3.93333 53.1333 0 52L2 44C7.53333 45.5333 13.1333 46.5833 18.8 47.15C24.4667 47.7167 30.2 48 36 48C41.7333 48 47.4333 47.7167 53.1 47.15C58.7667 46.5833 64.4 45.5333 70 44L72 52C68 53.1333 64.0167 54 60.05 54.6C56.0833 55.2 52.0667 55.6667 48 56V76H24ZM36 44C33.7333 44 31.8333 43.2333 30.3 41.7C28.7667 40.1667 28 38.2667 28 36C28 33.8 28.7667 31.9167 30.3 30.35C31.8333 28.7833 33.7333 28 36 28C38.2 28 40.0833 28.7833 41.65 30.35C43.2167 31.9167 44 33.8 44 36C44 38.2667 43.2167 40.1667 41.65 41.7C40.0833 43.2333 38.2 44 36 44ZM6 32C4.26667 32 2.83333 31.4333 1.7 30.3C0.566667 29.1667 0 27.7333 0 26C0 24.3333 0.566667 22.9167 1.7 21.75C2.83333 20.5833 4.26667 20 6 20C7.66667 20 9.08333 20.5833 10.25 21.75C11.4167 22.9167 12 24.3333 12 26C12 27.7333 11.4167 29.1667 10.25 30.3C9.08333 31.4333 7.66667 32 6 32ZM66 32C64.2667 32 62.8333 31.4333 61.7 30.3C60.5667 29.1667 60 27.7333 60 26C60 24.3333 60.5667 22.9167 61.7 21.75C62.8333 20.5833 64.2667 20 66 20C67.6667 20 69.0833 20.5833 70.25 21.75C71.4167 22.9167 72 24.3333 72 26C72 27.7333 71.4167 29.1667 70.25 30.3C69.0833 31.4333 67.6667 32 66 32ZM17 17C15.2667 17 13.8333 16.4333 12.7 15.3C11.5667 14.1667 11 12.7333 11 11C11 9.33333 11.5667 7.91667 12.7 6.75C13.8333 5.58333 15.2667 5 17 5C18.6667 5 20.0833 5.58333 21.25 6.75C22.4167 7.91667 23 9.33333 23 11C23 12.7333 22.4167 14.1667 21.25 15.3C20.0833 16.4333 18.6667 17 17 17ZM55 17C53.2667 17 51.8333 16.4333 50.7 15.3C49.5667 14.1667 49 12.7333 49 11C49 9.33333 49.5667 7.91667 50.7 6.75C51.8333 5.58333 53.2667 5 55 5C56.6667 5 58.0833 5.58333 59.25 6.75C60.4167 7.91667 61 9.33333 61 11C61 12.7333 60.4167 14.1667 59.25 15.3C58.0833 16.4333 56.6667 17 55 17ZM36 12C34.2667 12 32.8333 11.4333 31.7 10.3C30.5667 9.16667 30 7.73333 30 6C30 4.33333 30.5667 2.91667 31.7 1.75C32.8333 0.583333 34.2667 0 36 0C37.6667 0 39.0833 0.583333 40.25 1.75C41.4167 2.91667 42 4.33333 42 6C42 7.73333 41.4167 9.16667 40.25 10.3C39.0833 11.4333 37.6667 12 36 12Z" fill="black"/>
</svg>
