<svg width="66" height="66" viewBox="0 0 66 66" fill="none" xmlns="http://www.w3.org/2000/svg">
<path d="M33 0.5C15.06 0.5 0.5 15.06 0.5 33C0.5 50.94 15.06 65.5 33 65.5C50.94 65.5 65.5 50.94 65.5 33C65.5 15.06 50.94 0.5 33 0.5ZM17.8875 54.125C22.145 51.07 27.345 49.25 33 49.25C38.655 49.25 43.855 51.07 48.1125 54.125C43.855 57.18 38.655 59 33 59C27.345 59 22.145 57.18 17.8875 54.125ZM52.955 49.64C47.4625 45.35 40.54 42.75 33 42.75C25.46 42.75 18.5375 45.35 13.045 49.64C9.275 45.1225 7 39.3375 7 33C7 18.635 18.635 7 33 7C47.365 7 59 18.635 59 33C59 39.3375 56.725 45.1225 52.955 49.64Z" fill="black"/>
<path d="M33 13.5C26.7275 13.5 21.625 18.6025 21.625 24.875C21.625 31.1475 26.7275 36.25 33 36.25C39.2725 36.25 44.375 31.1475 44.375 24.875C44.375 18.6025 39.2725 13.5 33 13.5ZM33 29.75C30.3025 29.75 28.125 27.5725 28.125 24.875C28.125 22.1775 30.3025 20 33 20C35.6975 20 37.875 22.1775 37.875 24.875C37.875 27.5725 35.6975 29.75 33 29.75Z" fill="black"/>
</svg>
